<?xml version="1.0" standalone="no"?>
<!DOCTYPE svg PUBLIC "-//W3C//DTD SVG 20010904//EN"
 "http://www.w3.org/TR/2001/REC-SVG-20010904/DTD/svg10.dtd">
<svg version="1.0" xmlns="http://www.w3.org/2000/svg"
 width="512.000000pt" height="512.000000pt" viewBox="0 0 512.000000 512.000000"
 preserveAspectRatio="xMidYMid meet">

<g transform="translate(0.000000,512.000000) scale(0.100000,-0.100000)"
fill="#000000" stroke="none">
<path d="M2345 5109 c-123 -12 -280 -45 -401 -84 -216 -71 -367 -170 -532
-348 -265 -287 -416 -711 -467 -1312 -21 -244 -21 -1362 0 -1598 65 -727 282
-1213 672 -1499 260 -191 685 -292 1093 -260 425 33 714 155 954 400 110 112
185 222 266 386 128 265 198 538 241 946 17 160 24 1359 10 1560 -38 526 -150
917 -351 1225 -114 173 -335 364 -520 448 -256 116 -623 168 -965 136z m393
-675 c277 -56 459 -263 547 -623 61 -247 75 -479 75 -1236 0 -751 -14 -990
-71 -1238 -64 -280 -188 -482 -359 -585 -105 -63 -297 -97 -455 -81 -408 41
-626 340 -701 960 -13 105 -17 273 -21 779 -7 869 7 1137 72 1402 71 286 201
477 387 567 46 22 115 46 153 55 94 19 277 20 373 0z"/>
</g>
</svg>
