<?xml version="1.0" standalone="no"?>
<!DOCTYPE svg PUBLIC "-//W3C//DTD SVG 20010904//EN"
 "http://www.w3.org/TR/2001/REC-SVG-20010904/DTD/svg10.dtd">
<svg version="1.0" xmlns="http://www.w3.org/2000/svg"
 width="200.000000pt" height="200.000000pt" viewBox="0 0 200.000000 200.000000"
 preserveAspectRatio="xMidYMid meet">

<g transform="translate(0.000000,200.000000) scale(0.100000,-0.100000)"
fill="#000000" stroke="none">
<path d="M1391 1659 c-47 -19 -167 -123 -326 -284 l-161 -162 -34 29 c-87 73
-314 239 -336 244 -39 10 -73 -4 -94 -39 -45 -73 -25 -107 145 -234 72 -54
146 -111 166 -127 l36 -28 -95 -142 c-110 -165 -252 -442 -252 -493 0 -50 37
-83 92 -83 24 0 53 7 65 15 12 8 46 65 75 127 48 100 196 333 260 411 l23 27
125 -112 c68 -62 177 -163 241 -225 104 -100 122 -113 153 -113 72 0 123 77
92 138 -16 31 -236 243 -397 383 l-96 84 17 25 c50 69 197 224 295 311 67 59
112 106 116 123 12 42 -8 95 -44 116 -36 22 -34 22 -66 9z"/>
</g>
</svg>
